<?xml version="1.0" standalone="no"?>
<!DOCTYPE svg PUBLIC "-//W3C//DTD SVG 20010904//EN"
 "http://www.w3.org/TR/2001/REC-SVG-20010904/DTD/svg10.dtd">
<svg version="1.0" xmlns="http://www.w3.org/2000/svg"
 width="600.000000pt" height="600.000000pt" viewBox="0 0 600.000000 600.000000"
 preserveAspectRatio="xMidYMid meet">
<metadata>
Created by potrace 1.11, written by Peter Selinger 2001-2013
</metadata>
<g transform="translate(0.000000,600.000000) scale(0.100000,-0.100000)"
fill="#000000" stroke="none">
<path d="M639 4348 c-3 -104 0 -320 5 -326 4 -3 46 -7 95 -8 48 -1 97 -7 109
-13 51 -27 51 -23 49 -664 l-2 -597 -28 -27 c-26 -26 -33 -28 -123 -30 -53 -1
-99 -4 -101 -7 -3 -3 -6 -82 -7 -176 l-1 -170 498 0 497 0 0 175 0 175 -32 1
c-176 3 -168 2 -199 37 l-29 32 0 599 c0 583 1 599 20 624 27 34 61 44 158 42
l82 -1 0 178 0 178 -495 0 -495 0 -1 -22z"/>
<path d="M1809 4358 c0 -7 -1 -84 -2 -171 -2 -133 1 -160 13 -166 8 -4 44 -7
80 -6 71 2 110 -12 134 -47 14 -20 16 -94 16 -615 0 -404 -3 -600 -11 -616
-17 -38 -56 -54 -144 -56 -44 -1 -82 -6 -85 -11 -4 -6 -5 -291 -1 -335 1 -12
1058 -13 1136 -1 214 33 401 197 468 411 30 97 29 253 -3 345 -29 88 -74 164
-129 221 l-46 48 42 52 c89 112 135 252 128 393 -6 145 -52 257 -155 379 -26
31 -113 94 -167 122 -122 60 -99 58 -710 62 -458 3 -563 2 -564 -9z m1020
-423 c69 -17 128 -87 135 -160 6 -70 -47 -154 -115 -182 -16 -7 -85 -11 -175
-10 l-149 2 -1 177 -1 177 31 3 c50 5 247 0 275 -7z m58 -830 c105 -44 140
-168 76 -268 -42 -66 -81 -77 -274 -77 l-166 0 0 180 0 180 164 0 c124 0 172
-4 200 -15z"/>
<path d="M3780 4190 l0 -180 48 1 c89 2 103 -1 127 -26 33 -32 32 -62 -6 -215
-17 -69 -32 -133 -34 -143 -4 -18 -24 -100 -144 -585 -44 -179 -77 -293 -91
-311 -18 -26 -73 -54 -96 -50 -5 1 -24 1 -42 0 l-32 -1 2 -177 3 -177 375 0
375 -1 3 176 2 175 -43 11 c-70 19 -75 47 -38 201 l23 92 224 0 224 0 6 -27
c3 -16 9 -37 12 -48 3 -11 7 -22 7 -25 21 -94 25 -122 19 -144 -7 -28 -49 -56
-83 -56 -19 0 -20 -7 -20 -175 0 -127 4 -175 12 -176 7 -1 177 -2 379 -3 239
-1 368 2 369 9 0 6 1 85 2 178 l2 167 -40 0 c-67 0 -108 17 -133 54 -16 24
-51 144 -114 398 -49 200 -91 370 -93 378 -1 8 -21 89 -43 180 -51 207 -56
238 -43 273 13 35 49 49 129 49 56 1 62 3 63 22 1 26 1 294 0 319 -1 16 -39
17 -656 17 l-655 0 0 -180z m676 -371 c9 -35 17 -73 20 -84 5 -29 74 -307 80
-327 5 -17 -5 -18 -120 -18 l-125 0 14 48 c8 26 14 48 14 50 -3 7 95 401 99
398 2 -2 10 -33 18 -67z"/>
<path d="M796 2136 c-47 -18 -100 -68 -129 -121 -30 -54 -31 -202 -3 -255 41
-77 104 -119 190 -127 42 -4 61 1 108 24 56 29 57 29 60 9 3 -18 10 -21 52
-21 l50 0 -1 125 c-1 69 -2 130 -2 137 -1 8 -32 11 -103 10 l-103 -2 0 -50 c1
-49 1 -50 33 -55 30 -4 32 -7 20 -23 -21 -27 -69 -37 -109 -20 -49 19 -68 63
-65 143 2 57 6 66 34 92 45 39 96 34 130 -14 11 -14 27 -18 83 -18 68 0 70 1
64 23 -17 54 -57 108 -98 129 -53 27 -157 34 -211 14z"/>
<path d="M2950 2138 c-57 -16 -107 -59 -136 -117 -23 -44 -27 -66 -27 -130 0
-154 85 -248 231 -256 156 -9 257 84 266 243 9 160 -95 274 -250 271 -27 0
-65 -5 -84 -11z m129 -123 c60 -30 75 -157 27 -220 -35 -46 -91 -52 -132 -14
-58 54 -49 199 15 234 34 18 55 18 90 0z"/>
<path d="M1739 2113 c-3 -171 0 -455 5 -461 4 -4 39 -7 77 -7 l69 -1 -1 40
c-1 23 -1 62 0 87 l1 46 38 -2 c79 -5 102 -31 102 -115 0 -21 6 -42 13 -47 6
-5 41 -9 77 -9 l65 1 -4 40 c-2 22 -5 49 -7 60 -1 11 -3 30 -3 42 -1 12 -15
38 -31 57 -28 31 -29 35 -13 40 41 13 67 96 49 158 -21 72 -90 95 -289 97
l-147 2 -1 -28z m269 -104 c16 -6 22 -17 22 -38 0 -37 -18 -47 -87 -50 -47 -2
-52 0 -55 21 -2 13 -1 35 1 51 3 25 6 27 50 26 25 -1 56 -6 69 -10z"/>
<path d="M3877 2133 c-8 -13 0 -357 8 -378 32 -78 94 -115 202 -121 89 -4 144
13 190 61 45 47 53 88 53 278 l0 167 -75 0 -75 0 0 -166 c0 -91 -4 -174 -10
-184 -25 -46 -119 -41 -138 7 -6 16 -11 93 -10 173 0 80 -1 151 -1 158 -1 13
-136 18 -144 5z"/>
<path d="M4930 2136 c-4 -3 -4 -464 -1 -486 1 -3 34 -5 74 -5 l72 0 1 65 c1
36 2 70 3 75 0 6 36 11 80 12 134 2 192 47 199 152 5 77 -26 138 -86 168 -37
19 -60 21 -190 22 -82 1 -150 0 -152 -3z m257 -127 c24 -9 31 -50 14 -78 -13
-20 -121 -29 -122 -10 0 8 -2 32 -3 55 l-2 41 45 0 c25 1 56 -3 68 -8z"/>
</g>
</svg>
